<svg id="visual" viewBox="0 0 960 540" width="960" height="540" xmlns="http://www.w3.org/2000/svg" xmlns:xlink="http://www.w3.org/1999/xlink" version="1.1"><path d="M0 81L26.7 111.7C53.3 142.3 106.7 203.7 160 208.3C213.3 213 266.7 161 320 155.7C373.3 150.3 426.7 191.7 480 185C533.3 178.3 586.7 123.7 640 137.3C693.3 151 746.7 233 800 243.3C853.3 253.7 906.7 192.3 933.3 161.7L960 131L960 541L933.3 541C906.7 541 853.3 541 800 541C746.7 541 693.3 541 640 541C586.7 541 533.3 541 480 541C426.7 541 373.3 541 320 541C266.7 541 213.3 541 160 541C106.7 541 53.3 541 26.7 541L0 541Z" fill="#fa7268"></path><path d="M0 268L26.7 283.3C53.3 298.7 106.7 329.3 160 305.5C213.3 281.7 266.7 203.3 320 178.2C373.3 153 426.7 181 480 209.3C533.3 237.7 586.7 266.3 640 266.5C693.3 266.7 746.7 238.3 800 215.2C853.3 192 906.7 174 933.3 165L960 156L960 541L933.3 541C906.7 541 853.3 541 800 541C746.7 541 693.3 541 640 541C586.7 541 533.3 541 480 541C426.7 541 373.3 541 320 541C266.7 541 213.3 541 160 541C106.7 541 53.3 541 26.7 541L0 541Z" fill="#ef5f67"></path><path d="M0 253L26.7 267.3C53.3 281.7 106.7 310.3 160 325.3C213.3 340.3 266.7 341.7 320 350.3C373.3 359 426.7 375 480 360.5C533.3 346 586.7 301 640 271.3C693.3 241.7 746.7 227.3 800 250.2C853.3 273 906.7 333 933.3 363L960 393L960 541L933.3 541C906.7 541 853.3 541 800 541C746.7 541 693.3 541 640 541C586.7 541 533.3 541 480 541C426.7 541 373.3 541 320 541C266.7 541 213.3 541 160 541C106.7 541 53.3 541 26.7 541L0 541Z" fill="#e34c67"></path><path d="M0 279L26.7 297.7C53.3 316.3 106.7 353.7 160 370.2C213.3 386.7 266.7 382.3 320 370.5C373.3 358.7 426.7 339.3 480 353.5C533.3 367.7 586.7 415.3 640 411.7C693.3 408 746.7 353 800 337.2C853.3 321.3 906.7 344.7 933.3 356.3L960 368L960 541L933.3 541C906.7 541 853.3 541 800 541C746.7 541 693.3 541 640 541C586.7 541 533.3 541 480 541C426.7 541 373.3 541 320 541C266.7 541 213.3 541 160 541C106.7 541 53.3 541 26.7 541L0 541Z" fill="#d53867"></path><path d="M0 434L26.7 435.5C53.3 437 106.7 440 160 450C213.3 460 266.7 477 320 479.2C373.3 481.3 426.7 468.7 480 463.5C533.3 458.3 586.7 460.7 640 455.8C693.3 451 746.7 439 800 440.8C853.3 442.7 906.7 458.3 933.3 466.2L960 474L960 541L933.3 541C906.7 541 853.3 541 800 541C746.7 541 693.3 541 640 541C586.7 541 533.3 541 480 541C426.7 541 373.3 541 320 541C266.7 541 213.3 541 160 541C106.7 541 53.3 541 26.7 541L0 541Z" fill="#c62368"></path></svg>