<svg id="visual" viewBox="0 0 960 540" width="960" height="540" xmlns="http://www.w3.org/2000/svg" xmlns:xlink="http://www.w3.org/1999/xlink" version="1.1"><rect x="0" y="0" width="960" height="540" fill="#001220"></rect><path d="M0 378L40 389.3C80 400.7 160 423.3 240 420.3C320 417.3 400 388.7 480 363.7C560 338.7 640 317.3 720 313.7C800 310 880 324 920 331L960 338L960 541L920 541C880 541 800 541 720 541C640 541 560 541 480 541C400 541 320 541 240 541C160 541 80 541 40 541L0 541Z" fill="#0066FF" strokeLinecap="round" strokeLinejoin="miter"></path></svg>