<svg id="visual" viewBox="0 0 600 900" width="600" height="900" xmlns="http://www.w3.org/2000/svg" xmlns:xlink="http://www.w3.org/1999/xlink" version="1.1"><rect x="0" y="0" width="600" height="900" fill="#001220"></rect><path d="M0 662L25 673.5C50 685 100 708 150 723.8C200 739.7 250 748.3 300 730.5C350 712.7 400 668.3 450 656.8C500 645.3 550 666.7 575 677.3L600 688L600 901L575 901C550 901 500 901 450 901C400 901 350 901 300 901C250 901 200 901 150 901C100 901 50 901 25 901L0 901Z" fill="#0066FF" stroke-linecap="round" stroke-linejoin="miter"></path></svg>